# Blender 4.5.3 LTS
# www.blender.org
o Cube
v 1.000000 1.000000 0.000000
v 1.000000 0.000000 0.000000
v 1.000000 0.000000 1.000000
v 0.000000 1.000000 0.000000
v 0.000000 0.000000 0.000000
v 0.000000 1.000000 1.000000
v 0.000000 0.000000 1.000000
vn -1.0000 -0.0000 -0.0000
vn -0.0000 -1.0000 -0.0000
vn -0.0000 -0.0000 -1.0000
vn -0.0000 1.0000 -0.0000
vn -0.0000 -0.0000 1.0000
vn 1.0000 -0.0000 -0.0000
vn 0.5774 0.5774 0.5774
vt 0.375000 0.000000
vt 0.625000 0.000000
vt 0.625000 0.250000
vt 0.375000 0.250000
vt 0.125000 0.500000
vt 0.375000 0.500000
vt 0.375000 0.750000
vt 0.125000 0.750000
vt 0.625000 0.500000
s 0
f 7/1/1 6/2/1 4/3/1 5/4/1
f 5/5/2 2/6/2 3/7/2 7/8/2
f 5/4/3 4/3/3 1/9/3 2/6/3
f 4/3/4 6/2/4 1/9/4
f 6/2/5 7/8/5 3/7/5
f 2/6/6 1/9/6 3/7/6
f 1/9/7 6/2/7 3/7/7
