# Blender 4.5.3 LTS
# www.blender.org
mtllib slope_f_1.mtl
o Cube.001
v 1.000000 0.000000 0.000000
v 1.000000 0.000000 1.000000
v 0.000000 0.000000 0.000000
v 0.000000 0.000000 1.000000
v 0.000000 1.000000 1.000000
v 0.000000 1.000000 0.000000
v 0.833333 1.000000 1.000000
v 0.833333 1.000000 0.000000
vn -0.0000 -1.0000 -0.0000
vn -0.0000 -0.0000 1.0000
vn 0.9864 0.1644 -0.0000
vn -0.0000 -0.0000 -1.0000
vn -1.0000 -0.0000 -0.0000
vn -0.0000 1.0000 -0.0000
vt 0.125000 0.500000
vt 0.375000 0.500000
vt 0.375000 0.750000
vt 0.125000 0.750000
vt 0.208333 0.625000
vt 0.416667 0.625000
vt 0.416667 0.458333
vt 0.375000 0.250000
vt 0.416667 0.250000
vt 0.375000 0.000000
vt 0.416667 0.000000
s 0
usemtl Material
f 3/1/1 1/2/1 2/3/1 4/4/1
f 5/5/2 4/4/2 2/3/2 7/6/2
f 8/7/3 7/6/3 2/3/3 1/2/3
f 3/8/4 6/9/4 8/7/4 1/2/4
f 4/10/5 5/11/5 6/9/5 3/8/5
f 8/7/6 6/9/6 5/11/6 7/6/6
