# Blender 4.5.3 LTS
# www.blender.org
mtllib slope_c_middle.mtl
o Slope_C_Middle
v 0.000000 0.000000 0.000000
v 0.000000 1.000000 0.000000
v -0.000000 1.000000 1.000000
v -0.000000 -0.000000 1.000000
v 0.666667 0.000000 1.000000
v 0.333333 1.000000 1.000000
v 0.666667 0.000000 0.000000
v 0.333333 1.000000 0.000000
vn -0.0000 -1.0000 -0.0000
vn 0.9487 0.3162 -0.0000
vn -0.0000 -0.0000 -1.0000
vn -0.0000 -0.0000 1.0000
vn -1.0000 -0.0000 -0.0000
vn -0.0000 1.0000 -0.0000
vt 0.000000 0.000000
s 0
usemtl Material
f 4/1/1 1/1/1 7/1/1 5/1/1
f 8/1/2 6/1/2 5/1/2 7/1/2
f 7/1/3 1/1/3 2/1/3 8/1/3
f 6/1/4 3/1/4 4/1/4 5/1/4
f 1/1/5 4/1/5 3/1/5 2/1/5
f 3/1/6 6/1/6 8/1/6 2/1/6
