# Blender 4.5.3 LTS
# www.blender.org
mtllib slope_d_4.mtl
o Slope_D_4
v -0.000000 1.000000 1.000000
v 0.000000 1.000000 0.000000
v 0.000000 0.000000 0.000000
v -0.000000 0.000000 1.000000
v 0.250000 0.000000 0.000000
v 0.250000 0.000000 1.000000
vn -0.0000 -0.0000 1.0000
vn 0.9701 0.2425 -0.0000
vn -0.0000 -0.0000 -1.0000
vn -1.0000 -0.0000 -0.0000
vn -0.0000 -1.0000 -0.0000
vt 0.625000 0.750000
vt 0.562500 0.750000
vt 0.562500 0.687500
vt 0.625000 1.000000
vt 0.500000 0.875000
vt 0.562500 1.000000
s 0
usemtl Material
f 1/1/1 4/2/1 6/3/1
f 2/4/2 1/1/2 6/3/2 5/5/2
f 3/6/3 2/4/3 5/5/3
f 3/6/4 4/2/4 1/1/4 2/4/4
f 4/2/5 3/6/5 5/5/5 6/3/5
