# Blender 4.5.3 LTS
# www.blender.org
mtllib slope_a.mtl
o Cube
v 1.000000 0.000000 0.000000
v 1.000000 0.000000 1.000000
v 0.000000 1.000000 0.000000
v 0.000000 0.000000 0.000000
v 0.000000 1.000000 1.000000
v 0.000000 0.000000 1.000000
vn -1.0000 -0.0000 -0.0000
vn -0.0000 -1.0000 -0.0000
vn -0.0000 -0.0000 1.0000
vn -0.0000 -0.0000 -1.0000
vn 0.7071 0.7071 -0.0000
vt 0.375000 0.000000
vt 0.625000 0.000000
vt 0.625000 0.250000
vt 0.375000 0.250000
vt 0.125000 0.500000
vt 0.375000 0.500000
vt 0.375000 0.750000
vt 0.125000 0.750000
s 0
usemtl Material
f 6/1/1 5/2/1 3/3/1 4/4/1
f 4/5/2 1/6/2 2/7/2 6/8/2
f 5/2/3 6/8/3 2/7/3
f 4/4/4 3/3/4 1/6/4
f 3/3/5 5/2/5 2/7/5 1/6/5
