# Blender 4.5.3 LTS
# www.blender.org
mtllib slope_c_start.mtl
o Slope_C_Start
v 1.000000 0.000000 1.000000
v -0.000000 0.000000 1.000000
v 1.000000 0.000000 0.000000
v 0.000000 0.000000 0.000000
v 0.000000 1.000000 0.000000
v -0.000000 1.000000 1.000000
v 0.666667 1.000000 1.000000
v 0.666667 1.000000 0.000000
vn -1.0000 -0.0000 -0.0000
vn -0.0000 -0.0000 1.0000
vn 0.9487 0.3162 -0.0000
vn -0.0000 -0.0000 -1.0000
vn -0.0000 1.0000 -0.0000
vn -0.0000 -1.0000 -0.0000
vt 0.000000 0.000000
s 0
usemtl Material
f 6/1/1 5/1/1 4/1/1 2/1/1
f 7/1/2 6/1/2 2/1/2 1/1/2
f 1/1/3 3/1/3 8/1/3 7/1/3
f 3/1/4 4/1/4 5/1/4 8/1/4
f 5/1/5 6/1/5 7/1/5 8/1/5
f 4/1/6 3/1/6 1/1/6 2/1/6
