# Blender 4.5.3 LTS
# www.blender.org
mtllib slope_c_end.mtl
o Slope_C_End
v -0.000000 1.000000 1.000000
v 0.000000 1.000000 0.000000
v 0.000000 -0.000000 0.000000
v -0.000000 -0.000000 1.000000
v 0.333333 -0.000000 1.000000
v 0.333333 -0.000000 0.000000
vn -0.0000 -1.0000 -0.0000
vn -0.0000 -0.0000 1.0000
vn -0.0000 -0.0000 -1.0000
vn 0.9487 0.3162 -0.0000
vn -1.0000 -0.0000 -0.0000
vt 0.541667 0.750000
vt 0.541667 1.000000
vt 0.458333 0.833333
vt 0.541667 0.666667
vt 0.625000 0.750000
vt 0.625000 1.000000
s 0
usemtl Material
f 4/1/1 3/2/1 6/3/1 5/4/1
f 1/5/2 4/1/2 5/4/2
f 3/2/3 2/6/3 6/3/3
f 1/5/4 5/4/4 6/3/4 2/6/4
f 3/2/5 4/1/5 1/5/5 2/6/5
