# Blender 4.5.3 LTS
# www.blender.org
mtllib slope_b.mtl
o Slope_B_End
v 0.000000 2.000000 0.000000
v 0.000000 2.000000 1.000000
v 0.000000 1.000000 1.000000
v 0.000000 1.000000 0.000000
v 0.500000 1.000000 1.000000
v 0.500000 1.000000 0.000000
vn -1.0000 -0.0000 -0.0000
vn -0.0000 -0.0000 -1.0000
vn 0.8944 0.4472 -0.0000
vn -0.0000 -0.0000 1.0000
vn -0.0000 -1.0000 -0.0000
vt 0.500000 0.000000
vt 0.625000 0.000000
vt 0.625000 0.250000
vt 0.500000 0.250000
vt 0.500000 0.375000
vt 0.375000 0.375000
s 0
usemtl Material
f 3/1/1 2/2/1 1/3/1 4/4/1
f 4/4/2 1/3/2 6/5/2
f 1/3/3 2/2/3 5/5/3 6/5/3
f 2/2/4 3/6/4 5/5/4
f 6/5/5 5/5/5 3/1/5 4/4/5
o Slope_B_Start
v 1.000000 0.000000 0.000000
v 1.000000 0.000000 1.000000
v 0.000000 0.000000 0.000000
v 0.000000 0.000000 1.000000
v 0.000000 1.000000 1.000000
v 0.000000 1.000000 0.000000
v 0.500000 1.000000 1.000000
v 0.500000 1.000000 0.000000
vn -0.0000 -1.0000 -0.0000
vn -0.0000 -0.0000 1.0000
vn 0.8944 0.4472 -0.0000
vn -1.0000 -0.0000 -0.0000
vn -0.0000 -0.0000 -1.0000
vn -0.0000 1.0000 -0.0000
vt 0.125000 0.500000
vt 0.375000 0.500000
vt 0.375000 0.750000
vt 0.125000 0.750000
vt 0.375000 0.375000
vt 0.500000 0.375000
vt 0.375000 0.000000
vt 0.500000 0.000000
vt 0.500000 0.250000
vt 0.375000 0.250000
s 0
usemtl Material
f 9/7/6 7/8/6 8/9/6 10/10/6
f 11/11/7 10/10/7 8/9/7 13/12/7
f 14/12/8 13/12/8 8/9/8 7/8/8
f 10/13/9 11/14/9 12/15/9 9/16/9
f 9/16/10 12/15/10 14/12/10 7/8/10
f 14/12/11 12/15/11 11/14/11 13/12/11
