# Blender 4.5.3 LTS
# www.blender.org
mtllib slope_b_start.mtl
o Slope_B_Start
v 1.000000 0.000000 0.000000
v 1.000000 0.000000 1.000000
v 0.000000 0.000000 0.000000
v 0.000000 0.000000 1.000000
v 0.000000 1.000000 1.000000
v 0.000000 1.000000 0.000000
v 0.500000 1.000000 1.000000
v 0.500000 1.000000 0.000000
vn -0.0000 -1.0000 -0.0000
vn -0.0000 -0.0000 1.0000
vn 0.8944 0.4472 -0.0000
vn -1.0000 -0.0000 -0.0000
vn -0.0000 -0.0000 -1.0000
vn -0.0000 1.0000 -0.0000
vt 0.125000 0.500000
vt 0.375000 0.500000
vt 0.375000 0.750000
vt 0.125000 0.750000
vt 0.375000 0.375000
vt 0.500000 0.375000
vt 0.375000 0.000000
vt 0.500000 0.000000
vt 0.500000 0.250000
vt 0.375000 0.250000
s 0
usemtl Material
f 3/1/1 1/2/1 2/3/1 4/4/1
f 5/5/2 4/4/2 2/3/2 7/6/2
f 8/6/3 7/6/3 2/3/3 1/2/3
f 4/7/4 5/8/4 6/9/4 3/10/4
f 3/10/5 6/9/5 8/6/5 1/2/5
f 8/6/6 6/9/6 5/8/6 7/6/6
