# Blender 4.5.3 LTS
# www.blender.org
mtllib slope_e_1.mtl
o Cube.001
v 1.000000 0.000000 0.000000
v 1.000000 0.000000 1.000000
v 0.000000 0.000000 0.000000
v 0.000000 0.000000 1.000000
v 0.000000 1.000000 1.000000
v 0.800000 1.000000 0.000000
v 0.000000 1.000000 0.000000
v 0.800000 1.000000 1.000000
vn -0.0000 -0.0000 1.0000
vn -0.0000 -1.0000 -0.0000
vn -0.0000 -0.0000 -1.0000
vn 0.9806 0.1961 -0.0000
vn -1.0000 -0.0000 -0.0000
vn -0.0000 1.0000 -0.0000
vt 0.225000 0.600000
vt 0.125000 0.750000
vt 0.375000 0.750000
vt 0.425000 0.600000
vt 0.125000 0.500000
vt 0.375000 0.500000
vt 0.375000 0.250000
vt 0.425000 0.250000
vt 0.425000 0.450000
vt 0.375000 0.000000
vt 0.425000 0.000000
s 0
usemtl Material
f 5/1/1 4/2/1 2/3/1 8/4/1
f 3/5/2 1/6/2 2/3/2 4/2/2
f 3/7/3 7/8/3 6/9/3 1/6/3
f 1/6/4 6/9/4 8/4/4 2/3/4
f 4/10/5 5/11/5 7/8/5 3/7/5
f 6/9/6 7/8/6 5/1/6 8/4/6
