# Blender 4.5.3 LTS
# www.blender.org
mtllib slope_8_8.mtl
o Cube.008
v 0.000000 1.000000 0.000000
v 0.000000 1.000000 1.000000
v 0.000000 0.000000 1.000000
v 0.125000 0.000000 0.000000
v 0.000000 0.000000 0.000000
v 0.125000 0.000000 1.000000
vn -0.0000 -0.0000 -1.0000
vn -1.0000 -0.0000 -0.0000
vn 0.9923 0.1240 -0.0000
vn -0.0000 -0.0000 1.0000
vn -0.0000 -1.0000 -0.0000
vt 0.593750 0.250000
vt 0.625000 0.250000
vt 0.593750 0.281250
vt 0.593750 0.000000
vt 0.625000 0.000000
vt 0.593750 0.093750
vt 0.562500 0.093750
s 0
usemtl Material
f 5/1/1 1/2/1 4/3/1
f 3/4/2 2/5/2 1/2/2 5/1/2
f 4/3/3 1/2/3 2/5/3 6/6/3
f 2/5/4 3/7/4 6/6/4
f 4/3/5 6/6/5 3/7/5 5/1/5
