# Blender 4.5.3 LTS
# www.blender.org
mtllib slope_f_2.mtl
o Cube.002
v 0.000000 0.000000 1.000000
v 0.000000 0.000000 0.000000
v 0.833333 0.000000 1.000000
v 0.833333 0.000000 0.000000
v 0.000000 1.000000 1.000000
v 0.666667 1.000000 0.000000
v 0.000000 1.000000 0.000000
v 0.666667 1.000000 1.000000
vn 0.9864 0.1644 -0.0000
vn -0.0000 -0.0000 1.0000
vn -0.0000 -0.0000 -1.0000
vn -1.0000 -0.0000 -0.0000
vn -0.0000 1.0000 -0.0000
vn -0.0000 -1.0000 -0.0000
vt 0.458333 0.416667
vt 0.458333 0.500000
vt 0.416667 0.625000
vt 0.416667 0.458333
vt 0.291667 0.500000
vt 0.208333 0.625000
vt 0.416667 0.250000
vt 0.458333 0.250000
vt 0.416667 0.000000
vt 0.458333 0.000000
s 0
usemtl Material
f 6/1/1 8/2/1 3/3/1 4/4/1
f 5/5/2 1/6/2 3/3/2 8/2/2
f 2/7/3 7/8/3 6/1/3 4/4/3
f 1/9/4 5/10/4 7/8/4 2/7/4
f 6/1/5 7/8/5 5/5/5 8/2/5
f 4/4/6 3/3/6 1/9/6 2/7/6
