# Blender 4.5.3 LTS
# www.blender.org
mtllib slope_f_3.mtl
o Cube.003
v 0.000000 0.000000 1.000000
v 0.666667 0.000000 0.000000
v 0.000000 -0.000000 0.000000
v 0.666667 -0.000000 1.000000
v 0.000000 1.000000 1.000000
v 0.500000 1.000000 0.000000
v 0.000000 1.000000 0.000000
v 0.500000 1.000000 1.000000
vn 0.9864 0.1644 -0.0000
vn -0.0000 -0.0000 1.0000
vn -0.0000 -0.0000 -1.0000
vn -1.0000 -0.0000 -0.0000
vn -0.0000 1.0000 -0.0000
vn -0.0000 -1.0000 -0.0000
vt 0.500000 0.375000
vt 0.458333 0.500000
vt 0.458333 0.416667
vt 0.375000 0.375000
vt 0.291667 0.500000
vt 0.458333 0.250000
vt 0.500000 0.250000
vt 0.458333 0.000000
vt 0.500000 0.000000
s 0
usemtl Material
f 6/1/1 8/1/1 4/2/1 2/3/1
f 5/4/2 1/5/2 4/2/2 8/1/2
f 3/6/3 7/7/3 6/1/3 2/3/3
f 1/8/4 5/9/4 7/7/4 3/6/4
f 6/1/5 7/7/5 5/4/5 8/1/5
f 2/3/6 4/2/6 1/5/6 3/6/6
