# Blender 4.5.3 LTS
# www.blender.org
mtllib slope_f_5.mtl
o Cube.005
v 0.000000 0.000000 1.000000
v 0.333333 0.000000 0.000000
v 0.000000 -0.000000 0.000000
v 0.333333 -0.000000 1.000000
v 0.000000 1.000000 1.000000
v 0.166667 1.000000 0.000000
v 0.000000 1.000000 0.000000
v 0.166667 1.000000 1.000000
vn 0.9864 0.1644 -0.0000
vn -0.0000 -0.0000 1.0000
vn -0.0000 -0.0000 -1.0000
vn -1.0000 -0.0000 -0.0000
vn -0.0000 -1.0000 -0.0000
vn -0.0000 1.0000 -0.0000
vt 0.583333 0.291667
vt 0.583333 0.125000
vt 0.541667 0.250000
vt 0.541667 0.333333
vt 0.541667 0.125000
vt 0.458333 0.250000
vt 0.583333 0.250000
vt 0.541667 0.000000
vt 0.583333 0.000000
s 0
usemtl Material
f 6/1/1 8/2/1 4/3/1 2/4/1
f 5/5/2 1/6/2 4/3/2 8/2/2
f 3/3/3 7/7/3 6/1/3 2/4/3
f 1/8/4 5/9/4 7/7/4 3/3/4
f 2/4/5 4/3/5 1/6/5 3/3/5
f 6/1/6 7/7/6 5/5/6 8/2/6
