# Blender 4.5.3 LTS
# www.blender.org
mtllib slope_f_6.mtl
o Cube.006
v 0.000000 1.000000 0.000000
v 0.000000 1.000000 1.000000
v 0.000000 0.000000 1.000000
v 0.166667 0.000000 0.000000
v 0.000000 -0.000000 0.000000
v 0.166667 -0.000000 1.000000
vn -1.0000 -0.0000 -0.0000
vn -0.0000 -0.0000 -1.0000
vn 0.9864 0.1644 -0.0000
vn -0.0000 -0.0000 1.0000
vn -0.0000 -1.0000 -0.0000
vt 0.583333 0.000000
vt 0.625000 0.000000
vt 0.625000 0.250000
vt 0.583333 0.250000
vt 0.583333 0.291667
vt 0.583333 0.125000
vt 0.541667 0.125000
s 0
usemtl Material
f 3/1/1 2/2/1 1/3/1 5/4/1
f 5/4/2 1/3/2 4/5/2
f 1/3/3 2/2/3 6/6/3 4/5/3
f 2/2/4 3/7/4 6/6/4
f 4/5/5 6/6/5 3/7/5 5/4/5
