# Blender 4.5.3 LTS
# www.blender.org
mtllib slope_d_2.mtl
o Slope_D_2
v 0.000000 0.000000 0.000000
v 0.000000 1.000000 0.000000
v -0.000000 1.000000 1.000000
v -0.000000 0.000000 1.000000
v 0.750000 0.000000 0.000000
v 0.500000 1.000000 0.000000
v 0.750000 0.000000 1.000000
v 0.500000 1.000000 1.000000
vn 0.9701 0.2425 -0.0000
vn -0.0000 -0.0000 1.0000
vn -0.0000 -0.0000 -1.0000
vn -1.0000 -0.0000 -0.0000
vn -0.0000 -1.0000 -0.0000
vn -0.0000 1.0000 -0.0000
vt 0.000000 0.000000
s 0
usemtl Material
f 5/1/1 6/1/1 8/1/1 7/1/1
f 3/1/2 4/1/2 7/1/2 8/1/2
f 1/1/3 2/1/3 6/1/3 5/1/3
f 1/1/4 4/1/4 3/1/4 2/1/4
f 1/1/5 5/1/5 7/1/5 4/1/5
f 8/1/6 6/1/6 2/1/6 3/1/6
