# Blender 4.5.3 LTS
# www.blender.org
mtllib slope_g_5.mtl
o Cube.005
v 0.000000 -0.000000 1.000000
v 0.428571 -0.000000 0.000000
v 0.000000 -0.000000 0.000000
v 0.428571 -0.000000 1.000000
v 0.000000 1.000000 1.000000
v 0.285714 1.000000 0.000000
v 0.000000 1.000000 0.000000
v 0.285714 1.000000 1.000000
vn -0.0000 -0.0000 1.0000
vn -0.0000 -0.0000 -1.0000
vn 0.9899 0.1414 -0.0000
vn -1.0000 -0.0000 -0.0000
vn -0.0000 1.0000 -0.0000
vn -0.0000 -1.0000 -0.0000
vt 0.482143 0.214286
vt 0.410714 0.321429
vt 0.517857 0.321429
vt 0.553571 0.214286
vt 0.517857 0.250000
vt 0.553571 0.250000
vt 0.553571 0.321429
vt 0.517857 0.357143
vt 0.517857 0.000000
vt 0.553571 0.000000
s 0
usemtl Material
f 5/1/1 1/2/1 4/3/1 8/4/1
f 3/5/2 7/6/2 6/7/2 2/8/2
f 2/8/3 6/7/3 8/4/3 4/3/3
f 1/9/4 5/10/4 7/6/4 3/5/4
f 6/7/5 7/6/5 5/1/5 8/4/5
f 2/8/6 4/3/6 1/2/6 3/5/6
